<svg id="Layer_1" data-name="Layer 1" xmlns="http://www.w3.org/2000/svg" xmlns:xlink="http://www.w3.org/1999/xlink" viewBox="0 0 12.45 8.63"><defs><style>.cls-1{fill:none;}.cls-2{clip-path:url(#clip-path);}.cls-3,.cls-4{fill:#3792d0;}.cls-4{font-size:3.37px;font-family:RobotoCondensed-Regular, Roboto Condensed;}.cls-5{letter-spacing:-0.01em;}.cls-6{font-family:RobotoCondensed-Light, Roboto Condensed;font-weight:300;}</style><clipPath id="clip-path" transform="translate(-287.57 -415.61)"><rect class="cls-1" x="286.33" y="414.02" width="15" height="10.89"/></clipPath></defs><g class="cls-2"><path class="cls-3" d="M295.45,418.51v.65a.07.07,0,0,0,.07.06.06.06,0,0,0,.06-.06v-.65a.21.21,0,0,0,.21-.21v-1.88a.22.22,0,0,0-.21-.22v-.53a.06.06,0,0,0-.06-.06.07.07,0,0,0-.07.06v.53a.22.22,0,0,0-.2.22v1.88A.2.2,0,0,0,295.45,418.51Z" transform="translate(-287.57 -415.61)"/><path class="cls-3" d="M291.8,419.17a.22.22,0,0,0,.21.22V420a.05.05,0,0,0,.06.06s.07,0,.07-.06h0v-.64a.22.22,0,0,0,.2-.22h0v-1.88a.22.22,0,0,0-.2-.22v-.52a.07.07,0,0,0-.07-.07s-.06,0-.06.07h0v.52a.22.22,0,0,0-.21.22h0Zm.22-2h.11a.09.09,0,0,1,.08.09v1.88a.09.09,0,0,1-.08.09H292a.09.09,0,0,1-.09-.09v-1.88A.09.09,0,0,1,292,417.2Z" transform="translate(-287.57 -415.61)"/><path class="cls-3" d="M294.59,417.17v.48a.07.07,0,0,0,.07.07.07.07,0,0,0,.06-.07v-.48a.21.21,0,0,0,.21-.21v-.54a.23.23,0,0,0-.21-.22v-.44a.07.07,0,0,0-.06-.07.07.07,0,0,0-.07.07v.44a.22.22,0,0,0-.2.22V417A.2.2,0,0,0,294.59,417.17Z" transform="translate(-287.57 -415.61)"/><path class="cls-3" d="M292.87,419.39v.47a.07.07,0,0,0,.06.07.07.07,0,0,0,.07-.07h0v-.47a.22.22,0,0,0,.2-.22h0v-.54a.2.2,0,0,0-.2-.21V418a.07.07,0,0,0-.07-.07.07.07,0,0,0-.06.07h0v.45a.21.21,0,0,0-.21.21h0v.54A.22.22,0,0,0,292.87,419.39Zm0-.84H293a.08.08,0,0,1,.08.08v.54a.09.09,0,0,1-.08.09h-.11a.09.09,0,0,1-.09-.09v-.54A.08.08,0,0,1,292.88,418.55Z" transform="translate(-287.57 -415.61)"/><path class="cls-3" d="M293.53,418.74a.22.22,0,0,0,.2.21v.64a.07.07,0,0,0,.06.07.07.07,0,0,0,.07-.07V419a.22.22,0,0,0,.2-.21v-.9h0v-1a.21.21,0,0,0-.2-.21v-.53a.07.07,0,0,0-.07-.07.07.07,0,0,0-.06.07v.53a.21.21,0,0,0-.2.21v1h0Zm.4,0a.08.08,0,0,1-.08.08h-.11a.08.08,0,0,1-.08-.08v-.9h.27Z" transform="translate(-287.57 -415.61)"/><text class="cls-4" transform="translate(0.07 7.72)"><tspan class="cls-5">E</tspan><tspan x="1.64" y="0">con</tspan><tspan class="cls-6" x="6.52" y="0">teric</tspan></text></g></svg>