<svg id="Layer_1" data-name="Layer 1" xmlns="http://www.w3.org/2000/svg" xmlns:xlink="http://www.w3.org/1999/xlink" viewBox="0 0 12.84 3.33"><defs><style>.cls-1{fill:none;}.cls-2{clip-path:url(#clip-path);}.cls-3,.cls-4{fill:#3792d0;}.cls-4{font-size:2.51px;font-family:RobotoCondensed-Regular, Roboto Condensed;}.cls-5{letter-spacing:-0.01em;}.cls-6{font-family:RobotoCondensed-Light, Roboto Condensed;font-weight:300;}</style><clipPath id="clip-path" transform="translate(-287.65 -419.28)"><rect class="cls-1" x="286.45" y="418.05" width="15" height="5.71"/></clipPath></defs><g class="cls-2"><path class="cls-3" d="M290.36,421.44v.48a0,0,0,1,0,.1,0v-.48a.16.16,0,0,0,.15-.16v-1.4a.16.16,0,0,0-.15-.16v-.39a.05.05,0,1,0-.1,0v.39a.16.16,0,0,0-.15.16v1.4A.16.16,0,0,0,290.36,421.44Z" transform="translate(-287.65 -419.28)"/><path class="cls-3" d="M287.65,421.93a.16.16,0,0,0,.15.16v.48a.05.05,0,0,0,.05.05.06.06,0,0,0,0-.05h0v-.48a.16.16,0,0,0,.15-.16h0v-1.4a.16.16,0,0,0-.15-.16V420a.05.05,0,0,0,0-.05,0,0,0,0,0-.05.05h0v.39a.15.15,0,0,0-.15.16h0Zm.16-1.46h.08a.06.06,0,0,1,.06.06v1.4a.06.06,0,0,1-.06.06h-.08a.07.07,0,0,1-.07-.06v-1.4S287.77,420.47,287.81,420.47Z" transform="translate(-287.65 -419.28)"/><path class="cls-3" d="M289.72,420.44v.36a.05.05,0,1,0,.1,0v-.36a.15.15,0,0,0,.15-.15v-.41a.17.17,0,0,0-.15-.16v-.33a.05.05,0,0,0-.1,0v.33a.17.17,0,0,0-.15.16v.41A.15.15,0,0,0,289.72,420.44Z" transform="translate(-287.65 -419.28)"/><path class="cls-3" d="M288.44,422.09v.35a0,0,0,0,0,.05.05.05.05,0,0,0,.05-.05h0v-.35a.16.16,0,0,0,.15-.16h0v-.41a.15.15,0,0,0-.15-.15V421s0,0-.05,0a0,0,0,0,0-.05,0h0v.33a.15.15,0,0,0-.15.15h0v.4A.16.16,0,0,0,288.44,422.09Zm0-.63h.08a.07.07,0,0,1,.06.07v.4a.06.06,0,0,1-.06.06h-.08a.07.07,0,0,1-.07-.06v-.4A.07.07,0,0,1,288.45,421.46Z" transform="translate(-287.65 -419.28)"/><path class="cls-3" d="M288.93,421.61a.15.15,0,0,0,.15.15v.48a.05.05,0,0,0,.1,0v-.48a.15.15,0,0,0,.15-.15v-.67h0v-.74a.16.16,0,0,0-.15-.16v-.4a.05.05,0,0,0-.1,0v.4a.16.16,0,0,0-.15.16v.74h0Zm.3,0a.06.06,0,0,1-.06.06h-.08a.06.06,0,0,1-.06-.06v-.67h.2Z" transform="translate(-287.65 -419.28)"/><text class="cls-4" transform="translate(3.58 2.5)"><tspan class="cls-5">E</tspan><tspan x="1.22" y="0">con</tspan><tspan class="cls-6" x="4.85" y="0">teric</tspan></text></g></svg>