<svg id="Layer_1" data-name="Layer 1" xmlns="http://www.w3.org/2000/svg" xmlns:xlink="http://www.w3.org/1999/xlink" viewBox="0 0 12.45 8.63"><defs><style>.cls-1{fill:none;}.cls-2{clip-path:url(#clip-path);}.cls-3,.cls-4{fill:#231f20;}.cls-4{font-size:3.37px;font-family:RobotoCondensed-Regular, Roboto Condensed;}.cls-5{letter-spacing:-0.01em;}.cls-6{font-family:RobotoCondensed-Light, Roboto Condensed;font-weight:300;}</style><clipPath id="clip-path" transform="translate(-287.64 -415.8)"><rect class="cls-1" x="286.4" y="412.15" width="15" height="15"/></clipPath></defs><g class="cls-2"><path class="cls-3" d="M295.53,418.7v.64s0,.07.06.07a.07.07,0,0,0,.07-.07v-.64a.21.21,0,0,0,.2-.21V416.6a.21.21,0,0,0-.2-.21v-.53a.07.07,0,0,0-.07-.06.06.06,0,0,0-.06.06v.53a.21.21,0,0,0-.21.21v1.89A.21.21,0,0,0,295.53,418.7Z" transform="translate(-287.64 -415.8)"/><path class="cls-3" d="M291.87,419.36a.22.22,0,0,0,.21.21v.65a.06.06,0,0,0,.06.06.07.07,0,0,0,.07-.06h0v-.65a.21.21,0,0,0,.2-.21h0v-1.89a.22.22,0,0,0-.2-.21v-.53a.07.07,0,0,0-.07-.06.06.06,0,0,0-.06.06h0v.53a.23.23,0,0,0-.21.21h0Zm.22-2h.11a.09.09,0,0,1,.08.08v1.89a.08.08,0,0,1-.08.08h-.11a.08.08,0,0,1-.09-.08v-1.89A.09.09,0,0,1,292.09,417.39Z" transform="translate(-287.64 -415.8)"/><path class="cls-3" d="M294.66,417.36v.48a.07.07,0,0,0,.07.06.06.06,0,0,0,.06-.06v-.48a.21.21,0,0,0,.21-.21v-.55a.21.21,0,0,0-.21-.21v-.45a.06.06,0,0,0-.06-.06.07.07,0,0,0-.07.06v.45a.21.21,0,0,0-.2.21v.55A.21.21,0,0,0,294.66,417.36Z" transform="translate(-287.64 -415.8)"/><path class="cls-3" d="M292.94,419.57v.48a.07.07,0,0,0,.07.07.07.07,0,0,0,.06-.07h0v-.48a.2.2,0,0,0,.2-.21h0v-.55a.22.22,0,0,0-.2-.21v-.44a.07.07,0,0,0-.06-.07.07.07,0,0,0-.07.07h0v.44a.22.22,0,0,0-.2.21h0v.55A.2.2,0,0,0,292.94,419.57Zm0-.84h.11a.08.08,0,0,1,.08.08v.55a.07.07,0,0,1-.08.08H293a.07.07,0,0,1-.08-.08v-.55A.08.08,0,0,1,293,418.73Z" transform="translate(-287.64 -415.8)"/><path class="cls-3" d="M293.6,418.92a.2.2,0,0,0,.2.21v.65a.07.07,0,0,0,.07.06.06.06,0,0,0,.06-.06v-.65a.21.21,0,0,0,.21-.21V418h0v-1a.22.22,0,0,0-.21-.22v-.52a.07.07,0,0,0-.06-.07.07.07,0,0,0-.07.07v.52a.22.22,0,0,0-.2.22v1h0Zm.41,0a.09.09,0,0,1-.09.09h-.11a.09.09,0,0,1-.08-.09V418H294Z" transform="translate(-287.64 -415.8)"/><text class="cls-4" transform="translate(0.07 7.72)"><tspan class="cls-5">E</tspan><tspan x="1.64" y="0">con</tspan><tspan class="cls-6" x="6.52" y="0">teric</tspan></text></g></svg>