<svg id="Layer_1" data-name="Layer 1" xmlns="http://www.w3.org/2000/svg" xmlns:xlink="http://www.w3.org/1999/xlink" viewBox="0 0 4.15 2.88"><defs><style>.cls-1{fill:none;}.cls-2{clip-path:url(#clip-path);}.cls-3,.cls-4{fill:#231f20;}.cls-4{font-size:1.12px;font-family:RobotoCondensed-Regular, Roboto Condensed;}.cls-5{letter-spacing:-0.01em;}.cls-6{font-family:RobotoCondensed-Light, Roboto Condensed;font-weight:300;}</style><clipPath id="clip-path" transform="translate(-291.82 -418.36)"><rect class="cls-1" x="291.4" y="417.15" width="5" height="5"/></clipPath></defs><g class="cls-2"><path class="cls-3" d="M294.45,419.33v.22s0,0,0,0l0,0v-.22a.07.07,0,0,0,.07-.07v-.63a.08.08,0,0,0-.07-.07v-.17s0,0,0,0,0,0,0,0v.17a.08.08,0,0,0-.07.07v.63A.07.07,0,0,0,294.45,419.33Z" transform="translate(-291.82 -418.36)"/><path class="cls-3" d="M293.23,419.55a.07.07,0,0,0,.07.07v.22a0,0,0,0,0,0,0,0,0,0,0,0,0,0h0v-.22a.07.07,0,0,0,.07-.07h0v-.63a.08.08,0,0,0-.07-.07v-.17l0,0,0,0h0v.17a.08.08,0,0,0-.07.07h0Zm.07-.65h0a0,0,0,0,1,0,0v.63s0,0,0,0h0a0,0,0,0,1,0,0v-.63S293.28,418.9,293.3,418.9Z" transform="translate(-291.82 -418.36)"/><path class="cls-3" d="M294.16,418.89v.16l0,0,0,0v-.16a.08.08,0,0,0,.07-.07v-.19a.08.08,0,0,0-.07-.07v-.15a0,0,0,0,0,0,0,0,0,0,0,0,0,0v.15a.08.08,0,0,0-.07.07v.19A.08.08,0,0,0,294.16,418.89Z" transform="translate(-291.82 -418.36)"/><path class="cls-3" d="M293.58,419.62v.16s0,0,0,0,0,0,0,0h0v-.16a.07.07,0,0,0,.06-.07h0v-.18a.07.07,0,0,0-.06-.07v-.15l0,0s0,0,0,0h0v.15a.07.07,0,0,0-.06.07h0v.18A.07.07,0,0,0,293.58,419.62Zm0-.28h0a0,0,0,0,1,0,0v.18a0,0,0,0,1,0,0h0a0,0,0,0,1,0,0v-.18A0,0,0,0,1,293.59,419.34Z" transform="translate(-291.82 -418.36)"/><path class="cls-3" d="M293.8,419.41a.07.07,0,0,0,.07.07v.21l0,0,0,0v-.21a.07.07,0,0,0,.07-.07v-.3h0v-.33a.08.08,0,0,0-.07-.08v-.17l0,0,0,0v.17a.08.08,0,0,0-.07.08v.33h0Zm.14,0s0,0,0,0h0l0,0v-.3h.09Z" transform="translate(-291.82 -418.36)"/><text class="cls-4" transform="translate(0.02 2.57)"><tspan class="cls-5">E</tspan><tspan x="0.55" y="0">con</tspan><tspan class="cls-6" x="2.17" y="0">teric</tspan></text></g></svg>