<svg id="Layer_1" data-name="Layer 1" xmlns="http://www.w3.org/2000/svg" viewBox="0 0 5 5"><defs><style>.cls-1{fill:none;}.cls-2,.cls-3{fill:#fff;}.cls-3{font-size:0.84px;font-family:RobotoCondensed-Regular, Roboto Condensed;}.cls-4{letter-spacing:-0.01em;}.cls-5{font-family:RobotoCondensed-Light, Roboto Condensed;font-weight:300;}</style></defs><rect class="cls-1" width="5" height="5"/><path class="cls-2" d="M292.7,421.34v.16h0v-.16s.05,0,.05-.06v-.46a.06.06,0,0,0-.05-.06v-.13h0v.13a.06.06,0,0,0-.05.06v.46S292.68,421.33,292.7,421.34Z" transform="translate(-291.4 -418.66)"/><path class="cls-2" d="M291.8,421.5a0,0,0,0,0,.05.05v.16a0,0,0,0,0,0,0,0,0,0,0,0,0,0h0v-.16a0,0,0,0,0,.05-.05h0V421a0,0,0,0,0-.05,0v-.13a0,0,0,0,0,0,0,0,0,0,0,0,0,0h0V421a0,0,0,0,0-.05,0h0Zm.05-.49h0l0,0v.47l0,0h0l0,0V421Z" transform="translate(-291.4 -418.66)"/><path class="cls-2" d="M292.49,421v.12l0,0V421a0,0,0,0,0,.05-.05v-.13a.06.06,0,0,0-.05-.06v-.11h0v.11a.06.06,0,0,0-.05.06V421A0,0,0,0,0,292.49,421Z" transform="translate(-291.4 -418.66)"/><path class="cls-2" d="M292.06,421.55v.12l0,0s0,0,0,0h0v-.12a0,0,0,0,0,.05-.05h0v-.14a.05.05,0,0,0-.05-.05v-.11s0,0,0,0l0,0h0v.11a.05.05,0,0,0-.05.05h0v.14A0,0,0,0,0,292.06,421.55Zm0-.21h0a0,0,0,0,1,0,0v.14l0,0h0l0,0v-.14A0,0,0,0,1,292.06,421.34Z" transform="translate(-291.4 -418.66)"/><path class="cls-2" d="M292.23,421.39a0,0,0,0,0,0,.05v.16s0,0,0,0l0,0v-.16a0,0,0,0,0,.05-.05v-.22h0v-.25a0,0,0,0,0-.05-.05v-.13l0,0s0,0,0,0v.13a0,0,0,0,0,0,.05v.25h0Zm.1,0a0,0,0,0,1,0,0h0a0,0,0,0,1,0,0v-.22h.07Z" transform="translate(-291.4 -418.66)"/><text class="cls-3" transform="translate(1.59 2.79)"><tspan class="cls-4">E</tspan><tspan x="0.41" y="0">con</tspan><tspan class="cls-5" x="1.62" y="0">teric</tspan></text></svg>