<svg id="Layer_1" data-name="Layer 1" xmlns="http://www.w3.org/2000/svg" viewBox="0 0 15 15"><defs><style>.cls-1{fill:none;}.cls-2,.cls-3{fill:#fff;}.cls-3{font-size:2.51px;font-family:RobotoCondensed-Regular, Roboto Condensed;}.cls-4{letter-spacing:-0.01em;}.cls-5{font-family:RobotoCondensed-Light, Roboto Condensed;font-weight:300;}</style></defs><rect class="cls-1" width="15" height="15"/><path class="cls-2" d="M290.31,421.69v.48a.05.05,0,0,0,.05.05.06.06,0,0,0,.05-.05v-.48a.16.16,0,0,0,.15-.16v-1.4a.16.16,0,0,0-.15-.16v-.39a.05.05,0,0,0-.05-.05,0,0,0,0,0-.05.05V420a.16.16,0,0,0-.15.16v1.4A.16.16,0,0,0,290.31,421.69Z" transform="translate(-286.4 -413.66)"/><path class="cls-2" d="M287.59,422.18a.17.17,0,0,0,.16.16v.48a0,0,0,0,0,0,0,0,0,0,0,0,0,0h0v-.48a.16.16,0,0,0,.15-.16h0v-1.4a.15.15,0,0,0-.15-.16v-.39a0,0,0,0,0,0-.05,0,0,0,0,0,0,.05h0v.39a.16.16,0,0,0-.16.16h0Zm.16-1.46h.09a.06.06,0,0,1,.06.06v1.4a.06.06,0,0,1-.06.06h-.09a.06.06,0,0,1-.06-.06v-1.4A.06.06,0,0,1,287.75,420.72Z" transform="translate(-286.4 -413.66)"/><path class="cls-2" d="M289.67,420.69v.36a.05.05,0,0,0,.05.05.06.06,0,0,0,0-.05v-.36a.16.16,0,0,0,.15-.16v-.4a.16.16,0,0,0-.15-.16v-.33a.05.05,0,0,0,0-.05,0,0,0,0,0-.05.05V420a.15.15,0,0,0-.15.16v.4A.15.15,0,0,0,289.67,420.69Z" transform="translate(-286.4 -413.66)"/><path class="cls-2" d="M288.39,422.34v.35a0,0,0,0,0,.05.05,0,0,0,0,0,0-.05h0v-.35a.16.16,0,0,0,.15-.16h0v-.41a.15.15,0,0,0-.15-.15v-.34a0,0,0,0,0,0,0,0,0,0,0,0-.05,0h0v.34a.15.15,0,0,0-.15.15h0v.41A.16.16,0,0,0,288.39,422.34Zm0-.63h.09a.06.06,0,0,1,.06.06v.41a.06.06,0,0,1-.06.06h-.09a.06.06,0,0,1-.06-.06v-.41A.06.06,0,0,1,288.39,421.71Z" transform="translate(-286.4 -413.66)"/><path class="cls-2" d="M288.88,421.85a.15.15,0,0,0,.15.16v.48a0,0,0,0,0,.05.05,0,0,0,0,0,0-.05V422a.16.16,0,0,0,.16-.16v-.66h0v-.75a.16.16,0,0,0-.16-.15v-.4a0,0,0,0,0,0,0,0,0,0,0,0-.05,0v.4a.15.15,0,0,0-.15.15v.75h0Zm.3,0a.07.07,0,0,1-.06.07H289a.07.07,0,0,1-.06-.07v-.66h.21Z" transform="translate(-286.4 -413.66)"/><text class="cls-3" transform="translate(4.77 8.37)"><tspan class="cls-4">E</tspan><tspan x="1.22" y="0">con</tspan><tspan class="cls-5" x="4.85" y="0">teric</tspan></text></svg>