<svg id="Layer_1" data-name="Layer 1" xmlns="http://www.w3.org/2000/svg" xmlns:xlink="http://www.w3.org/1999/xlink" viewBox="0 0 2.59 2.92"><defs><style>.cls-1{fill:none;}.cls-2{clip-path:url(#clip-path);}.cls-3{fill:#3792d0;}</style><clipPath id="clip-path" transform="translate(-296.62 -425.41)"><rect class="cls-1" x="295.57" y="424.34" width="4.68" height="5"/></clipPath></defs><g class="cls-2"><path class="cls-3" d="M299,427.3v.42s0,0,0,0a0,0,0,0,0,0,0v-.42a.13.13,0,0,0,.13-.13v-1.23a.13.13,0,0,0-.13-.14v-.34a0,0,0,0,0,0,0s0,0,0,0v.34a.14.14,0,0,0-.14.14v1.23A.13.13,0,0,0,299,427.3Z" transform="translate(-296.62 -425.41)"/><path class="cls-3" d="M296.62,427.73a.13.13,0,0,0,.13.14v.42a0,0,0,0,0,0,0,0,0,0,0,0,0,0h0v-.42a.13.13,0,0,0,.13-.14h0v-1.22a.13.13,0,0,0-.13-.14V426a0,0,0,0,0,0,0,0,0,0,0,0,0,0h0v.35a.13.13,0,0,0-.13.14h0Zm.14-1.28h.07a.06.06,0,0,1,.05.06v1.22a.06.06,0,0,1-.05.06h-.07a.06.06,0,0,1-.06-.06v-1.22A.06.06,0,0,1,296.76,426.45Z" transform="translate(-296.62 -425.41)"/><path class="cls-3" d="M298.43,426.43v.31a0,0,0,0,0,.05.05,0,0,0,0,0,0-.05v-.31a.13.13,0,0,0,.13-.14v-.35a.13.13,0,0,0-.13-.14v-.29a0,0,0,0,0,0,0,0,0,0,0,0-.05,0v.29a.13.13,0,0,0-.13.14v.35A.13.13,0,0,0,298.43,426.43Z" transform="translate(-296.62 -425.41)"/><path class="cls-3" d="M297.31,427.87v.31a0,0,0,0,0,.05.05,0,0,0,0,0,0-.05h0v-.31a.13.13,0,0,0,.13-.14h0v-.35a.13.13,0,0,0-.13-.14V427a0,0,0,0,0,0,0,0,0,0,0,0-.05,0h0v.29a.13.13,0,0,0-.13.14h0v.35A.13.13,0,0,0,297.31,427.87Zm0-.54h.07a.06.06,0,0,1,.06.05v.35a.06.06,0,0,1-.06.06h-.07a.06.06,0,0,1-.05-.06v-.35A0,0,0,0,1,297.32,427.33Z" transform="translate(-296.62 -425.41)"/><path class="cls-3" d="M297.74,427.45a.15.15,0,0,0,.13.14V428a0,0,0,0,0,.05,0,0,0,0,0,0,0,0v-.42a.15.15,0,0,0,.13-.14v-.58h0v-.65a.13.13,0,0,0-.13-.14v-.35a0,0,0,0,0,0,0,0,0,0,0,0-.05,0v.35a.13.13,0,0,0-.13.14v.65h0Zm.27,0a.06.06,0,0,1-.06.05h-.07a0,0,0,0,1-.05-.05v-.58H298Z" transform="translate(-296.62 -425.41)"/></g></svg>