<svg id="Layer_1" data-name="Layer 1" xmlns="http://www.w3.org/2000/svg" xmlns:xlink="http://www.w3.org/1999/xlink" viewBox="0 0 129.66 145.94"><defs><style>.cls-1{fill:none;}.cls-2{clip-path:url(#clip-path);}.cls-3{fill:#3792d0;}</style><clipPath id="clip-path" transform="translate(-233.44 -349.59)"><rect class="cls-1" x="180.87" y="295.91" width="234.06" height="250"/></clipPath></defs><g class="cls-2"><path class="cls-3" d="M352.24,444.1V465a2.12,2.12,0,1,0,4.23,0V444.1a6.93,6.93,0,0,0,6.63-6.92V375.8a6.92,6.92,0,0,0-6.63-6.91V351.71a2.12,2.12,0,1,0-4.23,0v17.18a6.92,6.92,0,0,0-6.62,6.91v61.38A6.92,6.92,0,0,0,352.24,444.1Z" transform="translate(-233.44 -349.59)"/><path class="cls-3" d="M233.44,465.55a6.93,6.93,0,0,0,6.62,6.9v21a2.12,2.12,0,0,0,4.24,0v0h0V472.45a6.93,6.93,0,0,0,6.62-6.9v0h0V404.16a6.92,6.92,0,0,0-6.62-6.9v-17.2a2.12,2.12,0,0,0-4.24,0h0v17.18a6.92,6.92,0,0,0-6.62,6.9h0Zm6.93-64.06H244a2.68,2.68,0,0,1,2.69,2.69v61.35a2.69,2.69,0,0,1-2.69,2.69h-3.62a2.69,2.69,0,0,1-2.69-2.69V404.17A2.68,2.68,0,0,1,240.37,401.49Z" transform="translate(-233.44 -349.59)"/><path class="cls-3" d="M324.19,400.5V416a2.12,2.12,0,0,0,4.24,0V400.5a6.94,6.94,0,0,0,6.63-6.93V375.8a6.94,6.94,0,0,0-6.63-6.91V354.36a2.12,2.12,0,1,0-4.24,0v14.53a6.92,6.92,0,0,0-6.61,6.91v17.77A6.92,6.92,0,0,0,324.19,400.5Z" transform="translate(-233.44 -349.59)"/><path class="cls-3" d="M268.11,472.48V488a2.12,2.12,0,1,0,4.23,0v0h0V472.48a6.91,6.91,0,0,0,6.62-6.89v0h0V447.79a6.93,6.93,0,0,0-6.62-6.9V426.34a2.12,2.12,0,1,0-4.23,0v0h0v14.53a6.93,6.93,0,0,0-6.63,6.9v0h0v17.78A6.92,6.92,0,0,0,268.11,472.48Zm.3-27.36H272a2.7,2.7,0,0,1,2.69,2.69v17.76a2.7,2.7,0,0,1-2.69,2.69h-3.63a2.7,2.7,0,0,1-2.69-2.69V447.81A2.7,2.7,0,0,1,268.41,445.12Z" transform="translate(-233.44 -349.59)"/><path class="cls-3" d="M289.53,451.32a6.91,6.91,0,0,0,6.62,6.9v21a2.12,2.12,0,1,0,4.24,0v-21a6.92,6.92,0,0,0,6.62-6.9V422.2h0V389.62a6.91,6.91,0,0,0-6.63-6.9V365.53a2.12,2.12,0,0,0-4.24,0v17.19a6.91,6.91,0,0,0-6.63,6.9V422.2h0Zm13.24,0a2.69,2.69,0,0,1-2.69,2.69h-3.62a2.68,2.68,0,0,1-2.69-2.69V422.2h9Z" transform="translate(-233.44 -349.59)"/></g></svg>