<svg id="Layer_1" data-name="Layer 1" xmlns="http://www.w3.org/2000/svg" xmlns:xlink="http://www.w3.org/1999/xlink" viewBox="0 0 7.78 8.76"><defs><style>.cls-1{fill:none;}.cls-2{clip-path:url(#clip-path);}.cls-3{fill:#3792d0;}</style><clipPath id="clip-path" transform="translate(-294.03 -416.63)"><rect class="cls-1" x="290.88" y="413.41" width="14.04" height="15"/></clipPath></defs><g class="cls-2"><path class="cls-3" d="M301.16,422.3v1.26a.12.12,0,0,0,.13.12.12.12,0,0,0,.12-.12V422.3a.42.42,0,0,0,.4-.41V418.2a.42.42,0,0,0-.4-.41v-1a.12.12,0,0,0-.12-.13.13.13,0,0,0-.13.13v1a.42.42,0,0,0-.4.41v3.69A.42.42,0,0,0,301.16,422.3Z" transform="translate(-294.03 -416.63)"/><path class="cls-3" d="M294,423.59a.42.42,0,0,0,.4.41v1.26a.13.13,0,0,0,.13.13.12.12,0,0,0,.12-.13h0V424a.42.42,0,0,0,.4-.41h0V419.9a.42.42,0,0,0-.4-.41v-1a.12.12,0,0,0-.12-.13.13.13,0,0,0-.13.13h0v1a.42.42,0,0,0-.4.41h0Zm.42-3.85h.21a.18.18,0,0,1,.17.17v3.68a.17.17,0,0,1-.17.16h-.21a.16.16,0,0,1-.16-.16v-3.68A.17.17,0,0,1,294.45,419.74Z" transform="translate(-294.03 -416.63)"/><path class="cls-3" d="M299.48,419.69v.93a.12.12,0,0,0,.12.12.12.12,0,0,0,.13-.12v-.93a.43.43,0,0,0,.4-.42V418.2a.42.42,0,0,0-.4-.41v-.87a.13.13,0,0,0-.13-.13.12.12,0,0,0-.12.13v.87a.42.42,0,0,0-.4.41v1.07A.43.43,0,0,0,299.48,419.69Z" transform="translate(-294.03 -416.63)"/><path class="cls-3" d="M296.11,424v.94a.13.13,0,0,0,.26,0h0V424a.41.41,0,0,0,.39-.41h0v-1.07a.41.41,0,0,0-.39-.41v-.87a.13.13,0,0,0-.26,0h0v.87a.42.42,0,0,0-.4.41h0v1.07A.42.42,0,0,0,296.11,424Zm0-1.64h.22a.16.16,0,0,1,.16.16v1.07a.16.16,0,0,1-.16.16h-.22a.16.16,0,0,1-.16-.16v-1.07A.16.16,0,0,1,296.13,422.36Z" transform="translate(-294.03 -416.63)"/><path class="cls-3" d="M297.4,422.73a.41.41,0,0,0,.39.42v1.26a.13.13,0,0,0,.26,0v-1.26a.42.42,0,0,0,.4-.42V421h0v-2a.42.42,0,0,0-.4-.41v-1a.13.13,0,0,0-.26,0v1a.41.41,0,0,0-.39.41v2h0Zm.79,0a.17.17,0,0,1-.16.17h-.22a.17.17,0,0,1-.16-.17V421h.54Z" transform="translate(-294.03 -416.63)"/></g></svg>