<svg id="Layer_1" data-name="Layer 1" xmlns="http://www.w3.org/2000/svg" viewBox="0 0 5 5"><defs><style>.cls-1{fill:none;}.cls-2,.cls-3{fill:#fff;}.cls-3{font-size:1.12px;font-family:RobotoCondensed-Regular, Roboto Condensed;}.cls-4{letter-spacing:-0.01em;}.cls-5{font-family:RobotoCondensed-Light, Roboto Condensed;font-weight:300;}</style></defs><rect class="cls-1" width="5" height="5"/><path class="cls-2" d="M294.38,419.4v.21l0,0s0,0,0,0v-.21a.09.09,0,0,0,.06-.08v-.62a.09.09,0,0,0-.06-.08v-.17s0,0,0,0l0,0v.17a.1.1,0,0,0-.07.08v.62A.1.1,0,0,0,294.38,419.4Z" transform="translate(-291.34 -417.21)"/><path class="cls-2" d="M293.17,419.62a.09.09,0,0,0,.06.07v.21s0,0,0,0a0,0,0,0,0,0,0h0v-.21a.09.09,0,0,0,.06-.07h0V419a.07.07,0,0,0-.06-.07v-.18l0,0s0,0,0,0h0v.18a.07.07,0,0,0-.06.07h0Zm.07-.66h0a0,0,0,0,1,0,0v.62a0,0,0,0,1,0,0h0a0,0,0,0,1,0,0V419A0,0,0,0,1,293.24,419Z" transform="translate(-291.34 -417.21)"/><path class="cls-2" d="M294.1,419v.16l0,0,0,0V419a.07.07,0,0,0,.07-.07v-.18a.08.08,0,0,0-.07-.08v-.14s0,0,0,0,0,0,0,0v.14a.08.08,0,0,0-.07.08v.18A.07.07,0,0,0,294.1,419Z" transform="translate(-291.34 -417.21)"/><path class="cls-2" d="M293.52,419.69v.16l0,0,0,0h0v-.16a.08.08,0,0,0,.07-.07h0v-.19a.08.08,0,0,0-.07-.07v-.15l0,0a0,0,0,0,0,0,0h0v.15a.08.08,0,0,0-.07.07h0v.19A.08.08,0,0,0,293.52,419.69Zm0-.28h0s0,0,0,0v.19s0,0,0,0h0l0,0v-.19Z" transform="translate(-291.34 -417.21)"/><path class="cls-2" d="M293.74,419.47a.07.07,0,0,0,.07.07v.21s0,0,0,0,0,0,0,0v-.21a.07.07,0,0,0,.07-.07v-.3h0v-.33a.07.07,0,0,0-.07-.07v-.18l0,0,0,0v.18a.07.07,0,0,0-.07.07v.33h0Zm.14,0,0,0h0l0,0v-.3h.1Z" transform="translate(-291.34 -417.21)"/><text class="cls-3" transform="translate(0.44 3.79)"><tspan class="cls-4">E</tspan><tspan x="0.55" y="0">con</tspan><tspan class="cls-5" x="2.17" y="0">teric</tspan></text></svg>