<svg id="Layer_1" data-name="Layer 1" xmlns="http://www.w3.org/2000/svg" xmlns:xlink="http://www.w3.org/1999/xlink" viewBox="0 0 4.28 1.11"><defs><style>.cls-1{fill:none;}.cls-2{clip-path:url(#clip-path);}.cls-3,.cls-4{fill:#231f20;}.cls-4{font-size:0.84px;font-family:RobotoCondensed-Regular, Roboto Condensed;}.cls-5{letter-spacing:-0.01em;}.cls-6{font-family:RobotoCondensed-Light, Roboto Condensed;font-weight:300;}</style><clipPath id="clip-path" transform="translate(-291.86 -420.62)"><rect class="cls-1" x="291.46" y="418.66" width="5" height="5"/></clipPath></defs><g class="cls-2"><path class="cls-3" d="M292.77,421.34v.16h0v-.16a.06.06,0,0,0,.05-.06v-.46a.06.06,0,0,0-.05-.06v-.13h0v.13a.06.06,0,0,0,0,.06v.46A.06.06,0,0,0,292.77,421.34Z" transform="translate(-291.86 -420.62)"/><path class="cls-3" d="M291.86,421.5a0,0,0,0,0,.05.05v.16a0,0,0,0,0,0,0s0,0,0,0h0v-.16a0,0,0,0,0,.05-.05h0V421a0,0,0,0,0-.05,0v-.13s0,0,0,0a0,0,0,0,0,0,0h0V421a0,0,0,0,0-.05,0h0Zm.05-.49h0l0,0v.47l0,0h0l0,0V421Z" transform="translate(-291.86 -420.62)"/><path class="cls-3" d="M292.55,421v.12l0,0s0,0,0,0V421a0,0,0,0,0,.05-.05v-.13a.06.06,0,0,0-.05-.06v-.11h0v.11a.06.06,0,0,0-.05.06V421A0,0,0,0,0,292.55,421Z" transform="translate(-291.86 -420.62)"/><path class="cls-3" d="M292.12,421.55v.12l0,0,0,0h0v-.12a0,0,0,0,0,0-.05h0v-.14a.05.05,0,0,0,0-.05v-.11l0,0,0,0h0v.11a.06.06,0,0,0-.05.05h0v.14A.05.05,0,0,0,292.12,421.55Zm0-.21h0s0,0,0,0v.14s0,0,0,0h0l0,0v-.14A0,0,0,0,1,292.13,421.34Z" transform="translate(-291.86 -420.62)"/><path class="cls-3" d="M292.29,421.39a0,0,0,0,0,0,.05v.18l0,0v-.16a0,0,0,0,0,.05-.05v-.22h0v-.25a0,0,0,0,0-.05-.05v-.13l0,0v.15a0,0,0,0,0,0,.05v.25h0Zm.1,0a0,0,0,0,1,0,0h0a0,0,0,0,1,0,0v-.22h.07Z" transform="translate(-291.86 -420.62)"/><text class="cls-4" transform="translate(1.19 0.84)"><tspan class="cls-5">E</tspan><tspan x="0.41" y="0">con</tspan><tspan class="cls-6" x="1.62" y="0">teric</tspan></text></g></svg>