<svg id="Layer_1" data-name="Layer 1" xmlns="http://www.w3.org/2000/svg" xmlns:xlink="http://www.w3.org/1999/xlink" viewBox="0 0 12.84 3.33"><defs><style>.cls-1{fill:none;}.cls-2{clip-path:url(#clip-path);}.cls-3,.cls-4{fill:#231f20;}.cls-4{font-size:2.51px;font-family:RobotoCondensed-Regular, Roboto Condensed;}.cls-5{letter-spacing:-0.01em;}.cls-6{font-family:RobotoCondensed-Light, Roboto Condensed;font-weight:300;}</style><clipPath id="clip-path" transform="translate(-287.66 -419.53)"><rect class="cls-1" x="286.46" y="413.66" width="15" height="15"/></clipPath></defs><g class="cls-2"><path class="cls-3" d="M290.37,421.69v.48a.05.05,0,0,0,.1,0v-.48a.16.16,0,0,0,.15-.16v-1.4a.16.16,0,0,0-.15-.16v-.39a.05.05,0,0,0-.1,0V420a.16.16,0,0,0-.15.16v1.4A.16.16,0,0,0,290.37,421.69Z" transform="translate(-287.66 -419.53)"/><path class="cls-3" d="M287.66,422.18a.16.16,0,0,0,.15.16v.48a0,0,0,0,0,.05,0s.05,0,.05,0h0v-.48a.17.17,0,0,0,.15-.16h0v-1.4a.16.16,0,0,0-.15-.16v-.39a.05.05,0,0,0-.05-.05,0,0,0,0,0-.05.05h0v.39a.15.15,0,0,0-.15.16h0Zm.16-1.46h.08a.06.06,0,0,1,.06.06v1.4a.06.06,0,0,1-.06.06h-.08a.07.07,0,0,1-.07-.06v-1.4S287.78,420.72,287.82,420.72Z" transform="translate(-287.66 -419.53)"/><path class="cls-3" d="M289.73,420.69v.36a.05.05,0,1,0,.1,0v-.36a.16.16,0,0,0,.15-.16v-.4a.16.16,0,0,0-.15-.16v-.33a.05.05,0,0,0-.1,0V420a.16.16,0,0,0-.15.16v.4A.16.16,0,0,0,289.73,420.69Z" transform="translate(-287.66 -419.53)"/><path class="cls-3" d="M288.45,422.34v.35a0,0,0,0,0,.05.05.05.05,0,0,0,.05-.05h0v-.35a.16.16,0,0,0,.15-.16h0v-.41a.15.15,0,0,0-.15-.15v-.34s0,0-.05,0a0,0,0,0,0-.05,0h0v.34a.15.15,0,0,0-.15.15h0v.41A.16.16,0,0,0,288.45,422.34Zm0-.63h.08a.06.06,0,0,1,.06.06v.41a.06.06,0,0,1-.06.06h-.08a.07.07,0,0,1-.07-.06v-.41A.07.07,0,0,1,288.46,421.71Z" transform="translate(-287.66 -419.53)"/><path class="cls-3" d="M288.94,421.85a.16.16,0,0,0,.15.16v.48a.05.05,0,0,0,.1,0V422a.16.16,0,0,0,.15-.16v-.66h0v-.75a.15.15,0,0,0-.15-.15v-.4a.05.05,0,0,0-.1,0v.4a.15.15,0,0,0-.15.15v.75h0Zm.3,0a.07.07,0,0,1-.06.07h-.08s-.06,0-.06-.07v-.66h.2Z" transform="translate(-287.66 -419.53)"/><text class="cls-4" transform="translate(3.58 2.5)"><tspan class="cls-5">E</tspan><tspan x="1.22" y="0">con</tspan><tspan class="cls-6" x="4.85" y="0">teric</tspan></text></g></svg>