<svg id="Layer_1" data-name="Layer 1" xmlns="http://www.w3.org/2000/svg" xmlns:xlink="http://www.w3.org/1999/xlink" viewBox="0 0 4.15 2.88"><defs><style>.cls-1{fill:none;}.cls-2{clip-path:url(#clip-path);}.cls-3,.cls-4{fill:#3792d0;}.cls-4{font-size:1.12px;font-family:RobotoCondensed-Regular, Roboto Condensed;}.cls-5{letter-spacing:-0.01em;}.cls-6{font-family:RobotoCondensed-Light, Roboto Condensed;font-weight:300;}</style><clipPath id="clip-path" transform="translate(-291.76 -424.11)"><rect class="cls-1" x="291.34" y="423.58" width="5" height="3.63"/></clipPath></defs><g class="cls-2"><path class="cls-3" d="M294.38,425.08v.21l0,0s0,0,0,0v-.21s.06,0,.06-.07v-.63a.07.07,0,0,0-.06-.07v-.18s0,0,0,0l0,0v.18a.07.07,0,0,0-.06.07V425S294.35,425.08,294.38,425.08Z" transform="translate(-291.76 -424.11)"/><path class="cls-3" d="M293.17,425.3a.07.07,0,0,0,.06.07v.21s0,0,0,0l0,0h0v-.21a.08.08,0,0,0,.07-.07h0v-.63a.08.08,0,0,0-.07-.07v-.18l0,0s0,0,0,0h0v.18a.07.07,0,0,0-.06.07h0Zm.07-.66h0a0,0,0,0,1,0,0v.63s0,0,0,0h0s0,0,0,0v-.63A0,0,0,0,1,293.24,424.64Z" transform="translate(-291.76 -424.11)"/><path class="cls-3" d="M294.1,424.63v.16l0,0,0,0v-.16a.07.07,0,0,0,.07-.07v-.18a.07.07,0,0,0-.07-.07v-.15a0,0,0,0,0,0,0,0,0,0,0,0,0,0v.15a.07.07,0,0,0-.07.07v.18A.07.07,0,0,0,294.1,424.63Z" transform="translate(-291.76 -424.11)"/><path class="cls-3" d="M293.52,425.37v.16a0,0,0,0,0,0,0,0,0,0,0,0,0,0h0v-.16a.07.07,0,0,0,.07-.07h0v-.18a.08.08,0,0,0-.07-.08v-.14s0,0,0,0,0,0,0,0h0V425a.08.08,0,0,0-.07.08h0v.18A.07.07,0,0,0,293.52,425.37Zm0-.28h0a0,0,0,0,1,0,0v.18s0,0,0,0h0l0,0v-.18S293.51,425.09,293.52,425.09Z" transform="translate(-291.76 -424.11)"/><path class="cls-3" d="M293.74,425.15a.07.07,0,0,0,.07.07v.22l0,0,0,0v-.22a.07.07,0,0,0,.07-.07v-.3h0v-.33a.07.07,0,0,0-.07-.07v-.18l0,0,0,0v.18a.07.07,0,0,0-.07.07v.33h0Zm.14,0a0,0,0,0,1,0,0h0a0,0,0,0,1,0,0v-.3h.1Z" transform="translate(-291.76 -424.11)"/><text class="cls-4" transform="translate(0.02 2.57)"><tspan class="cls-5">E</tspan><tspan x="0.55" y="0">con</tspan><tspan class="cls-6" x="2.17" y="0">teric</tspan></text></g></svg>