<svg id="Layer_1" data-name="Layer 1" xmlns="http://www.w3.org/2000/svg" viewBox="0 0 14.04 15"><defs><style>.cls-1{fill:none;}.cls-2{fill:#fff;}</style></defs><rect class="cls-1" width="14.04" height="15"/><path class="cls-2" d="M301.17,422.55v1.26a.12.12,0,0,0,.13.12.12.12,0,0,0,.12-.12v-1.26a.42.42,0,0,0,.4-.41v-3.69a.42.42,0,0,0-.4-.41v-1a.12.12,0,0,0-.12-.13.13.13,0,0,0-.13.13v1a.42.42,0,0,0-.4.41v3.69A.42.42,0,0,0,301.17,422.55Z" transform="translate(-290.89 -413.66)"/><path class="cls-2" d="M294,423.84a.42.42,0,0,0,.4.41v1.26a.13.13,0,0,0,.13.13.12.12,0,0,0,.12-.13h0v-1.26a.42.42,0,0,0,.4-.41h0v-3.69a.42.42,0,0,0-.4-.41v-1a.12.12,0,0,0-.12-.13.13.13,0,0,0-.13.13h0v1a.42.42,0,0,0-.4.41h0Zm.42-3.85h.21a.18.18,0,0,1,.17.17v3.68a.17.17,0,0,1-.17.16h-.21a.16.16,0,0,1-.16-.16v-3.69A.16.16,0,0,1,294.46,420Z" transform="translate(-290.89 -413.66)"/><path class="cls-2" d="M299.49,419.93v.94a.12.12,0,0,0,.12.12.12.12,0,0,0,.13-.12v-.94a.42.42,0,0,0,.4-.41v-1.07a.42.42,0,0,0-.4-.41v-.87a.13.13,0,0,0-.13-.13.12.12,0,0,0-.12.13V418a.42.42,0,0,0-.4.41v1.07A.42.42,0,0,0,299.49,419.93Z" transform="translate(-290.89 -413.66)"/><path class="cls-2" d="M296.12,424.25v.94a.13.13,0,0,0,.26,0h0v-.93a.41.41,0,0,0,.39-.41h0v-1.07a.41.41,0,0,0-.39-.41v-.88a.13.13,0,0,0-.26,0h0v.87a.42.42,0,0,0-.4.41h0v1.07A.42.42,0,0,0,296.12,424.25Zm0-1.64h.22a.16.16,0,0,1,.16.16v1.07a.16.16,0,0,1-.16.16h-.22a.16.16,0,0,1-.16-.16v-1.07A.16.16,0,0,1,296.14,422.61Z" transform="translate(-290.89 -413.66)"/><path class="cls-2" d="M297.41,423a.41.41,0,0,0,.39.42v1.26a.13.13,0,0,0,.26,0V423.4a.42.42,0,0,0,.4-.42v-1.74h0v-2a.42.42,0,0,0-.4-.41v-1a.13.13,0,0,0-.26,0v1a.41.41,0,0,0-.39.41v2h0Zm.79,0a.17.17,0,0,1-.16.17h-.22a.17.17,0,0,1-.16-.17v-1.74h.54Z" transform="translate(-290.89 -413.66)"/></svg>