<svg id="Layer_1" data-name="Layer 1" xmlns="http://www.w3.org/2000/svg" xmlns:xlink="http://www.w3.org/1999/xlink" viewBox="0 0 213.92 55.58"><defs><style>.cls-1{fill:none;}.cls-2{clip-path:url(#clip-path);}.cls-3,.cls-4{fill:#3792d0;}.cls-4{font-size:41.78px;font-family:RobotoCondensed-Regular, Roboto Condensed;}.cls-5{letter-spacing:-0.01em;}.cls-6{font-family:RobotoCondensed-Light, Roboto Condensed;font-weight:300;}</style><clipPath id="clip-path" transform="translate(-188.86 -393.75)"><rect class="cls-1" x="168.95" y="373.3" width="250" height="95.22"/></clipPath></defs><g class="cls-2"><path class="cls-3" d="M234.11,429.75v8a.81.81,0,1,0,1.61,0v-8a2.64,2.64,0,0,0,2.52-2.64V403.74a2.63,2.63,0,0,0-2.52-2.63v-6.55a.81.81,0,1,0-1.61,0v6.55a2.63,2.63,0,0,0-2.53,2.63v23.37A2.65,2.65,0,0,0,234.11,429.75Z" transform="translate(-188.86 -393.75)"/><path class="cls-3" d="M188.86,437.92a2.63,2.63,0,0,0,2.52,2.62v8a.81.81,0,0,0,1.62,0h0v-8a2.63,2.63,0,0,0,2.52-2.62h0V414.54a2.63,2.63,0,0,0-2.52-2.63v-6.55a.81.81,0,0,0-1.62,0h0v6.55a2.63,2.63,0,0,0-2.52,2.63h0Zm2.64-24.4h1.38a1,1,0,0,1,1,1v23.37a1,1,0,0,1-1,1H191.5a1,1,0,0,1-1-1V414.54A1,1,0,0,1,191.5,413.52Z" transform="translate(-188.86 -393.75)"/><path class="cls-3" d="M223.42,413.14v5.91a.81.81,0,0,0,1.62,0v-5.91a2.64,2.64,0,0,0,2.52-2.63v-6.77a2.63,2.63,0,0,0-2.52-2.63v-5.54a.81.81,0,1,0-1.62,0v5.54a2.62,2.62,0,0,0-2.51,2.63v6.77A2.63,2.63,0,0,0,223.42,413.14Z" transform="translate(-188.86 -393.75)"/><path class="cls-3" d="M202.06,440.56v5.92a.81.81,0,0,0,1.62,0h0v-5.91a2.63,2.63,0,0,0,2.52-2.63h0v-6.77a2.63,2.63,0,0,0-2.52-2.62V423a.81.81,0,0,0-1.62,0h0v5.54a2.63,2.63,0,0,0-2.52,2.62h0v6.77A2.63,2.63,0,0,0,202.06,440.56Zm.12-10.42h1.38a1,1,0,0,1,1,1v6.77a1,1,0,0,1-1,1h-1.38a1,1,0,0,1-1-1v-6.76A1,1,0,0,1,202.18,430.14Z" transform="translate(-188.86 -393.75)"/><path class="cls-3" d="M210.22,432.5a2.65,2.65,0,0,0,2.52,2.63v8a.81.81,0,0,0,1.62,0v-8a2.65,2.65,0,0,0,2.52-2.63V421.41h0V409a2.63,2.63,0,0,0-2.52-2.63v-6.55a.81.81,0,0,0-1.62,0v6.55a2.63,2.63,0,0,0-2.52,2.63v12.41h0Zm5.05,0a1,1,0,0,1-1,1h-1.38a1,1,0,0,1-1-1V421.41h3.43Z" transform="translate(-188.86 -393.75)"/><text class="cls-4" transform="translate(59.63 41.72)"><tspan class="cls-5">E</tspan><tspan x="20.36" y="0">con</tspan><tspan class="cls-6" x="80.85" y="0">teric</tspan></text></g></svg>