<svg id="Layer_1" data-name="Layer 1" xmlns="http://www.w3.org/2000/svg" xmlns:xlink="http://www.w3.org/1999/xlink" viewBox="0 0 207.47 143.85"><defs><style>.cls-1{fill:none;}.cls-2{clip-path:url(#clip-path);}.cls-3,.cls-4{fill:#3792d0;}.cls-4{font-size:56.19px;font-family:RobotoCondensed-Regular, Roboto Condensed;}.cls-5{letter-spacing:-0.01em;}.cls-6{font-family:RobotoCondensed-Light, Roboto Condensed;font-weight:300;}</style><clipPath id="clip-path" transform="translate(-189.47 -355.25)"><rect class="cls-1" x="168.83" y="328.67" width="250" height="181.58"/></clipPath></defs><g class="cls-2"><path class="cls-3" d="M320.85,403.66v10.72a1.08,1.08,0,0,0,2.16,0V403.66a3.56,3.56,0,0,0,3.4-3.55V368.67a3.54,3.54,0,0,0-3.4-3.53v-8.81a1.08,1.08,0,0,0-2.16,0v8.81a3.54,3.54,0,0,0-3.4,3.53v31.44A3.56,3.56,0,0,0,320.85,403.66Z" transform="translate(-189.47 -355.25)"/><path class="cls-3" d="M260,414.64a3.55,3.55,0,0,0,3.4,3.54v10.73a1.09,1.09,0,1,0,2.17,0h0V418.18a3.55,3.55,0,0,0,3.39-3.54h0V383.2a3.54,3.54,0,0,0-3.39-3.53v-8.82a1.09,1.09,0,0,0-2.17,0h0v8.81a3.54,3.54,0,0,0-3.4,3.53h0Zm3.55-32.81h1.86a1.38,1.38,0,0,1,1.38,1.38v31.42A1.38,1.38,0,0,1,265.4,416h-1.86a1.38,1.38,0,0,1-1.38-1.38V383.21A1.38,1.38,0,0,1,263.54,381.83Z" transform="translate(-189.47 -355.25)"/><path class="cls-3" d="M306.48,381.32v7.95a1.09,1.09,0,1,0,2.17,0v-7.95a3.54,3.54,0,0,0,3.39-3.54v-9.11a3.54,3.54,0,0,0-3.39-3.53v-7.45a1.09,1.09,0,1,0-2.17,0v7.45a3.54,3.54,0,0,0-3.39,3.53v9.11A3.54,3.54,0,0,0,306.48,381.32Z" transform="translate(-189.47 -355.25)"/><path class="cls-3" d="M277.75,418.2v7.95a1.09,1.09,0,1,0,2.17,0h0V418.2a3.55,3.55,0,0,0,3.39-3.54h0v-9.1a3.54,3.54,0,0,0-3.39-3.53v-7.46a1.09,1.09,0,0,0-2.17,0h0V402a3.54,3.54,0,0,0-3.39,3.53h0v9.1A3.55,3.55,0,0,0,277.75,418.2Zm.16-14h1.85a1.38,1.38,0,0,1,1.38,1.38v9.09a1.38,1.38,0,0,1-1.38,1.38h-1.85a1.38,1.38,0,0,1-1.38-1.38v-9.09A1.38,1.38,0,0,1,277.91,404.18Z" transform="translate(-189.47 -355.25)"/><path class="cls-3" d="M288.72,407.36a3.54,3.54,0,0,0,3.39,3.53v10.74a1.09,1.09,0,0,0,2.18,0V410.89a3.54,3.54,0,0,0,3.39-3.53V392.44h0V375.75a3.53,3.53,0,0,0-3.39-3.53v-8.81a1.09,1.09,0,0,0-2.18,0v8.81a3.54,3.54,0,0,0-3.39,3.53v16.69h0Zm6.79,0a1.38,1.38,0,0,1-1.38,1.38h-1.86a1.38,1.38,0,0,1-1.38-1.38V392.44h4.62Z" transform="translate(-189.47 -355.25)"/><text class="cls-4" transform="translate(1.21 128.62)"><tspan class="cls-5">E</tspan><tspan x="27.38" y="0">con</tspan><tspan class="cls-6" x="108.74" y="0">teric</tspan></text></g></svg>